<svg width="747" height="150" viewBox="0 0 747 150" fill="none" xmlns="http://www.w3.org/2000/svg">
<g clip-path="url(#clip0_409_47)">
<rect width="747" height="150" fill="white"/>
<path d="M49.8 132.992C43.492 132.992 37.7927 131.941 32.702 129.838C27.722 127.735 23.4613 124.747 19.92 120.874C16.4893 117.001 13.8333 112.297 11.952 106.764C10.0707 101.231 9.13 95.0333 9.13 88.172C9.13 81.3107 10.0707 75.1133 11.952 69.58C13.8333 64.0467 16.4893 59.3433 19.92 55.47C23.4613 51.5967 27.722 48.6087 32.702 46.506C37.7927 44.4033 43.492 43.352 49.8 43.352C56.108 43.352 61.752 44.4033 66.732 46.506C71.8227 48.6087 76.0833 51.5967 79.514 55.47C83.0553 59.3433 85.7667 64.0467 87.648 69.58C89.5293 75.1133 90.47 81.3107 90.47 88.172C90.47 95.0333 89.5293 101.231 87.648 106.764C85.7667 112.297 83.0553 117.001 79.514 120.874C76.0833 124.747 71.8227 127.735 66.732 129.838C61.752 131.941 56.108 132.992 49.8 132.992ZM49.8 118.716C56.44 118.716 61.6967 116.724 65.57 112.74C69.554 108.645 71.546 102.614 71.546 94.646V81.698C71.546 73.73 69.554 67.754 65.57 63.77C61.6967 59.6753 56.44 57.628 49.8 57.628C43.16 57.628 37.848 59.6753 33.864 63.77C29.9907 67.754 28.054 73.73 28.054 81.698V94.646C28.054 102.614 29.9907 108.645 33.864 112.74C37.848 116.724 43.16 118.716 49.8 118.716ZM120.285 116.392H148.671V22.768H120.285V8.16H166.765V116.392H195.151V131H120.285V116.392ZM284.062 116.392H283.066C280.521 121.593 277.146 125.688 272.94 128.676C268.735 131.553 263.478 132.992 257.17 132.992C247.1 132.992 239.076 129.229 233.1 121.704C227.124 114.179 224.136 103.001 224.136 88.172C224.136 73.3427 227.124 62.1653 233.1 54.64C239.076 47.1147 247.1 43.352 257.17 43.352C263.478 43.352 268.735 44.846 272.94 47.834C277.146 50.7113 280.521 54.7507 283.066 59.952H284.062V8.16H302.156V131H284.062V116.392ZM264.64 118.218C267.296 118.218 269.786 117.886 272.11 117.222C274.434 116.558 276.482 115.562 278.252 114.234C280.023 112.906 281.406 111.301 282.402 109.42C283.509 107.428 284.062 105.104 284.062 102.448V73.896C284.062 71.24 283.509 68.9713 282.402 67.09C281.406 65.098 280.023 63.438 278.252 62.11C276.482 60.782 274.434 59.786 272.11 59.122C269.786 58.458 267.296 58.126 264.64 58.126C257.779 58.126 252.467 60.2287 248.704 64.434C245.052 68.6393 243.226 74.228 243.226 81.2V95.144C243.226 102.116 245.052 107.705 248.704 111.91C252.467 116.115 257.779 118.218 264.64 118.218Z" fill="#0084FF"/>
<path d="M413.975 131H333.963V113.238L371.811 80.204C377.787 74.892 382.38 69.8567 385.589 65.098C388.909 60.3393 390.569 55.304 390.569 49.992V48.166C390.569 42.0793 388.909 37.4313 385.589 34.222C382.269 30.902 377.455 29.242 371.147 29.242C364.729 29.242 359.749 30.9573 356.207 34.388C352.777 37.8187 350.287 42.19 348.737 47.502L332.469 41.36C333.576 37.708 335.181 34.222 337.283 30.902C339.386 27.4713 342.042 24.428 345.251 21.772C348.571 19.116 352.445 17.0133 356.871 15.464C361.409 13.9147 366.61 13.14 372.475 13.14C378.451 13.14 383.763 14.0253 388.411 15.796C393.17 17.456 397.154 19.78 400.363 22.768C403.573 25.756 406.007 29.3527 407.667 33.558C409.327 37.6527 410.157 42.19 410.157 47.17C410.157 51.818 409.438 56.134 407.999 60.118C406.671 63.9913 404.735 67.754 402.189 71.406C399.755 74.9473 396.822 78.378 393.391 81.698C389.961 85.018 386.198 88.338 382.103 91.658L354.049 115.23H413.975V131ZM481.141 132.992C473.837 132.992 467.473 131.664 462.051 129.008C456.739 126.241 452.312 122.313 448.771 117.222C445.34 112.131 442.795 105.879 441.135 98.464C439.475 91.0493 438.645 82.5833 438.645 73.066C438.645 63.6593 439.475 55.2487 441.135 47.834C442.795 40.3087 445.34 34.0007 448.771 28.91C452.312 23.8193 456.739 19.946 462.051 17.29C467.473 14.5233 473.837 13.14 481.141 13.14C488.445 13.14 494.753 14.5233 500.065 17.29C505.487 19.946 509.914 23.8193 513.345 28.91C516.886 34.0007 519.487 40.3087 521.147 47.834C522.807 55.2487 523.637 63.6593 523.637 73.066C523.637 82.5833 522.807 91.0493 521.147 98.464C519.487 105.879 516.886 112.131 513.345 117.222C509.914 122.313 505.487 126.241 500.065 129.008C494.753 131.664 488.445 132.992 481.141 132.992ZM481.141 117.72C489.551 117.72 495.527 114.621 499.069 108.424C502.721 102.116 504.547 93.65 504.547 83.026V63.106C504.547 52.482 502.721 44.0713 499.069 37.874C495.527 31.566 489.551 28.412 481.141 28.412C476.935 28.412 473.339 29.242 470.351 30.902C467.363 32.4513 464.928 34.7753 463.047 37.874C461.165 40.862 459.782 44.514 458.897 48.83C458.122 53.0353 457.735 57.794 457.735 63.106V83.026C457.735 88.338 458.122 93.152 458.897 97.468C459.782 101.673 461.165 105.325 463.047 108.424C464.928 111.412 467.363 113.736 470.351 115.396C473.339 116.945 476.935 117.72 481.141 117.72ZM481.141 82.86C477.267 82.86 474.556 82.0853 473.007 80.536C471.568 78.9867 470.849 77.1053 470.849 74.892V71.24C470.849 69.0267 471.568 67.1453 473.007 65.596C474.556 64.0467 477.267 63.272 481.141 63.272C485.014 63.272 487.67 64.0467 489.109 65.596C490.658 67.1453 491.433 69.0267 491.433 71.24V74.892C491.433 77.1053 490.658 78.9867 489.109 80.536C487.67 82.0853 485.014 82.86 481.141 82.86ZM588.976 132.992C581.672 132.992 575.308 131.664 569.886 129.008C564.574 126.241 560.147 122.313 556.606 117.222C553.175 112.131 550.63 105.879 548.97 98.464C547.31 91.0493 546.48 82.5833 546.48 73.066C546.48 63.6593 547.31 55.2487 548.97 47.834C550.63 40.3087 553.175 34.0007 556.606 28.91C560.147 23.8193 564.574 19.946 569.886 17.29C575.308 14.5233 581.672 13.14 588.976 13.14C596.28 13.14 602.588 14.5233 607.9 17.29C613.322 19.946 617.749 23.8193 621.18 28.91C624.721 34.0007 627.322 40.3087 628.982 47.834C630.642 55.2487 631.472 63.6593 631.472 73.066C631.472 82.5833 630.642 91.0493 628.982 98.464C627.322 105.879 624.721 112.131 621.18 117.222C617.749 122.313 613.322 126.241 607.9 129.008C602.588 131.664 596.28 132.992 588.976 132.992ZM588.976 117.72C597.386 117.72 603.362 114.621 606.904 108.424C610.556 102.116 612.382 93.65 612.382 83.026V63.106C612.382 52.482 610.556 44.0713 606.904 37.874C603.362 31.566 597.386 28.412 588.976 28.412C584.77 28.412 581.174 29.242 578.186 30.902C575.198 32.4513 572.763 34.7753 570.882 37.874C569 40.862 567.617 44.514 566.732 48.83C565.957 53.0353 565.57 57.794 565.57 63.106V83.026C565.57 88.338 565.957 93.152 566.732 97.468C567.617 101.673 569 105.325 570.882 108.424C572.763 111.412 575.198 113.736 578.186 115.396C581.174 116.945 584.77 117.72 588.976 117.72ZM588.976 82.86C585.102 82.86 582.391 82.0853 580.842 80.536C579.403 78.9867 578.684 77.1053 578.684 74.892V71.24C578.684 69.0267 579.403 67.1453 580.842 65.596C582.391 64.0467 585.102 63.272 588.976 63.272C592.849 63.272 595.505 64.0467 596.944 65.596C598.493 67.1453 599.268 69.0267 599.268 71.24V74.892C599.268 77.1053 598.493 78.9867 596.944 80.536C595.505 82.0853 592.849 82.86 588.976 82.86ZM696.811 132.992C689.507 132.992 683.144 131.664 677.721 129.008C672.409 126.241 667.982 122.313 664.441 117.222C661.01 112.131 658.465 105.879 656.805 98.464C655.145 91.0493 654.315 82.5833 654.315 73.066C654.315 63.6593 655.145 55.2487 656.805 47.834C658.465 40.3087 661.01 34.0007 664.441 28.91C667.982 23.8193 672.409 19.946 677.721 17.29C683.144 14.5233 689.507 13.14 696.811 13.14C704.115 13.14 710.423 14.5233 715.735 17.29C721.158 19.946 725.584 23.8193 729.015 28.91C732.556 34.0007 735.157 40.3087 736.817 47.834C738.477 55.2487 739.307 63.6593 739.307 73.066C739.307 82.5833 738.477 91.0493 736.817 98.464C735.157 105.879 732.556 112.131 729.015 117.222C725.584 122.313 721.158 126.241 715.735 129.008C710.423 131.664 704.115 132.992 696.811 132.992ZM696.811 117.72C705.222 117.72 711.198 114.621 714.739 108.424C718.391 102.116 720.217 93.65 720.217 83.026V63.106C720.217 52.482 718.391 44.0713 714.739 37.874C711.198 31.566 705.222 28.412 696.811 28.412C692.606 28.412 689.009 29.242 686.021 30.902C683.033 32.4513 680.598 34.7753 678.717 37.874C676.836 40.862 675.452 44.514 674.567 48.83C673.792 53.0353 673.405 57.794 673.405 63.106V83.026C673.405 88.338 673.792 93.152 674.567 97.468C675.452 101.673 676.836 105.325 678.717 108.424C680.598 111.412 683.033 113.736 686.021 115.396C689.009 116.945 692.606 117.72 696.811 117.72ZM696.811 82.86C692.938 82.86 690.226 82.0853 688.677 80.536C687.238 78.9867 686.519 77.1053 686.519 74.892V71.24C686.519 69.0267 687.238 67.1453 688.677 65.596C690.226 64.0467 692.938 63.272 696.811 63.272C700.684 63.272 703.34 64.0467 704.779 65.596C706.328 67.1453 707.103 69.0267 707.103 71.24V74.892C707.103 77.1053 706.328 78.9867 704.779 80.536C703.34 82.0853 700.684 82.86 696.811 82.86Z" fill="black"/>
</g>
<defs>
<clipPath id="clip0_409_47">
<rect width="747" height="150" fill="white"/>
</clipPath>
</defs>
</svg>
